<svg id="Layer_1" enable-background="new 0 0 497 497" height="512" viewBox="0 0 497 497" width="512" xmlns="http://www.w3.org/2000/svg"><g><g><path d="m-25.278 200.979h545.163v92.648h-545.163z" fill="#cf7a15" transform="matrix(.707 -.707 .707 .707 -102.436 247.265)"/><g fill="#ffe11c"><path d=""/><path d=""/></g></g><g fill="#ffe11c"><path d=""/><path d=""/></g><g><path d="m480.67 16.356c-21.802-21.807-57.174-21.807-78.977 0l-20.627 20.632c-4.919 4.92-2.836 13.282 3.803 15.363 15.963 5.002 27.163 14.994 27.163 14.994s-19.922 17.789-44.497 17.789c-8.081 0-15.654-1.925-22.184-4.507-3.437-1.359-7.347-.567-9.961 2.047l-28.413 28.419c-4.919 4.92-2.836 13.282 3.803 15.363 15.963 5.002 27.163 14.994 27.163 14.994s-19.922 17.789-44.497 17.789c-8.081 0-15.654-1.925-22.184-4.507-3.437-1.359-7.347-.567-9.961 2.047l-28.413 28.419c-4.919 4.92-2.836 13.282 3.803 15.363 15.962 5.002 27.163 14.994 27.163 14.994s-19.922 17.789-44.497 17.789c-8.081 0-15.654-1.925-22.184-4.507-3.437-1.359-7.347-.567-9.961 2.047l-28.409 28.416c-4.919 4.92-2.836 13.282 3.803 15.363 15.963 5.002 27.163 14.994 27.163 14.994s-19.922 17.789-44.497 17.789c-8.081 0-15.654-1.925-22.184-4.507-3.437-1.359-7.347-.567-9.961 2.047l-28.413 28.419c-4.919 4.92-2.836 13.282 3.803 15.363 15.963 5.002 27.163 14.994 27.163 14.994s-19.921 17.788-44.496 17.788c-8.081 0-15.654-1.925-22.184-4.507-3.437-1.359-7.347-.567-9.961 2.047l-22.71 22.715c-21.773 21.778-21.773 57.063 0 78.841 21.802 21.807 57.174 21.807 78.976 0l385.365-385.45c21.773-21.777 21.773-57.063 0-78.84z" fill="#f0a346"/></g><g><path d="m480.67 16.356c-16.079-16.083-39.534-20.289-59.488-12.65 7.102 2.719 13.765 6.925 19.488 12.65 21.773 21.778 21.773 57.063 0 78.841l-385.364 385.448c-5.723 5.724-12.386 9.931-19.488 12.65 19.954 7.639 43.409 3.433 59.488-12.65l385.364-385.449c21.773-21.777 21.773-57.063 0-78.84z" fill="#eb8f21"/></g></g></svg>