<?xml version="1.0" standalone="no"?>
<!DOCTYPE svg PUBLIC "-//W3C//DTD SVG 20010904//EN"
 "http://www.w3.org/TR/2001/REC-SVG-20010904/DTD/svg10.dtd">
<svg version="1.0" xmlns="http://www.w3.org/2000/svg"
 width="1280.000000pt" height="2045.000000pt" viewBox="0 0 1280.000000 2045.000000"
 preserveAspectRatio="xMidYMid meet">
<metadata>
Created by potrace 1.16, written by Peter Selinger 2001-2019
</metadata>
<g transform="translate(0.000000,2045.000000) scale(0.100000,-0.100000)"
fill="#fff" stroke="none">
<path d="M6355 19806 c-21 -50 -32 -106 -50 -256 -48 -393 -103 -542 -271
-721 -90 -96 -151 -203 -208 -366 -61 -176 -87 -211 -228 -296 -127 -78 -169
-139 -176 -259 -6 -98 21 -193 117 -418 106 -250 103 -234 109 -610 2 -182 -1
-411 -7 -520 -57 -970 -285 -2616 -577 -4160 -603 -3189 -1665 -6546 -2813
-8895 -480 -982 -925 -1695 -1372 -2200 -238 -270 -319 -392 -319 -483 0 -38
5 -50 38 -82 52 -52 112 -67 310 -80 790 -48 3897 -34 4313 21 106 13 299 64
364 94 67 32 95 66 95 114 0 89 -115 208 -440 456 -392 300 -542 428 -745 636
-281 287 -475 574 -635 938 -71 163 -72 172 -77 691 -6 621 9 801 82 995 96
256 418 726 732 1070 160 175 297 295 337 295 52 0 98 -243 127 -665 6 -88 13
-492 16 -898 l5 -738 182 -108 c825 -492 1099 -585 1416 -481 154 51 470 227
663 370 232 173 365 331 411 490 32 112 68 502 111 1195 29 467 49 726 66 837
l11 76 117 -128 c566 -617 931 -1214 1062 -1740 27 -110 38 -434 19 -603 -51
-475 -187 -870 -418 -1217 -138 -207 -247 -336 -476 -565 -212 -211 -341 -322
-647 -555 -188 -144 -296 -247 -329 -314 -48 -100 -2 -191 111 -221 69 -19
277 -42 494 -55 365 -22 813 -29 1890 -30 1544 0 2513 20 2552 52 51 42 -77
259 -465 793 -582 798 -885 1289 -1233 2000 -1502 3070 -2907 8332 -3403
12745 -32 280 -48 522 -48 725 -1 355 33 504 168 736 99 168 131 273 122 398
-7 93 -35 139 -150 243 -155 140 -235 222 -257 267 -12 23 -33 86 -46 139 -30
120 -72 225 -129 317 -93 152 -185 346 -290 611 -30 78 -76 185 -100 238 -75
160 -104 188 -131 122z m159 -1716 c115 -224 125 -280 107 -570 -88 -1401 -87
-1564 9 -1950 74 -299 118 -566 254 -1545 175 -1255 206 -1519 212 -1800 2
-115 2 -205 -1 -200 -2 6 -13 64 -25 130 -50 289 -145 492 -299 645 -171 169
-389 206 -569 97 -65 -39 -159 -132 -213 -212 -76 -112 -110 -193 -155 -370
-127 -507 -366 -1908 -459 -2695 -8 -69 -20 -241 -27 -383 -18 -390 -1 -470
131 -610 122 -130 298 -236 459 -278 117 -30 463 -44 751 -30 395 20 535 63
677 209 69 70 105 133 129 227 54 212 43 652 -31 1165 -31 218 -48 315 -134
765 -134 692 -168 910 -161 1023 3 58 53 -34 104 -193 72 -223 175 -640 303
-1220 127 -577 223 -977 355 -1481 106 -404 188 -747 224 -938 33 -173 63
-257 125 -352 64 -98 93 -177 184 -490 41 -142 110 -378 154 -524 93 -309 158
-557 148 -567 -3 -4 -129 55 -279 130 -221 112 -291 142 -371 162 -153 39
-275 34 -447 -16 -86 -25 -116 -50 -149 -123 -59 -131 -99 -343 -195 -1011
-70 -492 -101 -670 -145 -845 -79 -312 -165 -482 -326 -647 -113 -115 -139
-126 -297 -131 -152 -5 -258 9 -384 49 -253 81 -435 204 -493 334 -53 116 -93
352 -105 611 -3 71 -10 275 -15 454 -12 416 -34 613 -96 839 -102 376 -305
555 -582 514 -196 -30 -377 -122 -685 -352 -158 -117 -246 -176 -252 -169 -7
6 70 230 180 528 243 658 453 1359 794 2655 542 2062 777 3189 976 4687 92
699 129 884 215 1089 27 63 55 142 64 175 24 94 36 261 36 514 0 454 45 1717
80 2250 24 365 58 596 92 637 10 13 15 11 35 -13 13 -16 56 -94 97 -174z m6
-5779 c13 -48 54 -361 80 -601 45 -421 125 -986 210 -1485 121 -706 165 -1055
154 -1231 l-7 -111 -241 -22 c-310 -29 -537 -37 -646 -22 -176 23 -200 39
-200 131 0 117 98 750 380 2440 139 835 162 945 204 972 16 11 55 -31 66 -71z
m-3359 -8768 c5 -14 14 -81 19 -148 20 -258 204 -843 384 -1221 120 -250 302
-546 534 -869 83 -116 98 -141 84 -147 -17 -6 -376 -30 -737 -48 -402 -20
-1164 -32 -1350 -21 -200 12 -252 22 -291 58 -55 51 -20 140 188 479 244 394
481 806 746 1295 243 447 305 552 365 617 37 39 45 40 58 5z m6719 -204 c17
-17 48 -57 69 -88 56 -82 367 -616 831 -1427 l408 -711 -72 -12 c-183 -31
-1275 -72 -1976 -74 -358 -2 -450 3 -450 23 0 5 91 148 201 317 256 390 361
565 469 778 143 281 235 518 327 844 30 108 64 226 74 262 20 69 51 119 74
119 7 0 28 -14 45 -31z"/>
</g>
</svg>
