<?xml version="1.0" standalone="no"?>
<!DOCTYPE svg PUBLIC "-//W3C//DTD SVG 20010904//EN"
 "http://www.w3.org/TR/2001/REC-SVG-20010904/DTD/svg10.dtd">
<svg version="1.0" xmlns="http://www.w3.org/2000/svg"
 width="1260.000000pt" height="1907.000000pt" viewBox="0 0 1260.000000 1907.000000"
 preserveAspectRatio="xMidYMid meet">
<metadata>
Created by potrace 1.16, written by Peter Selinger 2001-2019
</metadata>
<g transform="translate(0.000000,1907.000000) scale(0.100000,-0.100000)"
fill="#000000" stroke="none">
<path d="M6257 18260 c-19 -22 -51 -81 -71 -130 -44 -104 -118 -225 -224 -365
-97 -129 -146 -232 -165 -351 -23 -144 -71 -221 -237 -384 -125 -123 -154
-178 -148 -282 4 -88 26 -135 134 -287 103 -144 109 -168 108 -411 -1 -255
-54 -908 -125 -1545 -406 -3658 -1490 -7841 -2743 -10579 -397 -866 -1095
-2059 -1737 -2968 -104 -148 -192 -274 -195 -281 -6 -16 212 -56 371 -68 385
-30 3076 -51 3740 -30 464 15 556 29 571 86 9 37 -11 130 -43 195 -36 75 -174
210 -287 280 -254 157 -372 249 -575 445 -296 287 -566 634 -676 868 -67 143
-137 418 -169 667 -105 812 156 1609 695 2125 193 185 335 279 385 256 90 -41
113 -205 154 -1121 27 -601 42 -738 91 -863 42 -105 127 -196 261 -276 108
-65 672 -355 764 -393 68 -28 91 -33 164 -33 78 0 95 4 195 45 484 196 925
494 1026 692 45 88 66 337 79 918 14 658 31 934 62 1013 11 29 53 57 85 57 35
0 139 -58 216 -119 130 -106 346 -356 487 -566 219 -327 351 -673 406 -1065
21 -145 30 -559 15 -696 -13 -126 -47 -261 -98 -389 -158 -399 -390 -757 -688
-1064 -146 -150 -284 -263 -458 -372 -334 -210 -497 -376 -497 -504 0 -92 64
-125 310 -160 320 -45 3048 -35 4005 15 261 14 275 18 275 72 0 58 -61 159
-430 713 -429 644 -573 872 -780 1240 -702 1246 -1368 2832 -1870 4450 -542
1747 -1135 4485 -1464 6760 -151 1044 -253 2079 -227 2308 12 104 32 152 107
259 31 44 75 119 97 166 39 81 42 93 45 187 4 94 2 103 -25 155 -23 44 -42 63
-93 97 -149 96 -194 157 -225 303 -34 166 -100 304 -226 475 -111 151 -163
243 -200 352 -38 114 -59 143 -104 143 -27 0 -40 -8 -68 -40z m93 -6710 c40
-126 119 -555 284 -1545 145 -871 193 -1251 196 -1561 l0 -32 -97 -6 c-54 -4
-224 -11 -378 -16 -422 -15 -514 2 -565 105 -46 92 -33 232 64 730 89 454 248
1358 331 1880 45 281 78 449 99 500 14 33 18 37 30 24 8 -8 24 -43 36 -79z"/>
</g>
</svg>
